<?xml version="1.0" encoding="utf-8"?>
<!-- Generator: Adobe Illustrator 16.0.0, SVG Export Plug-In . SVG Version: 6.00 Build 0)  -->
<!DOCTYPE svg PUBLIC "-//W3C//DTD SVG 1.1//EN" "http://www.w3.org/Graphics/SVG/1.1/DTD/svg11.dtd">
<svg version="1.1" xmlns="http://www.w3.org/2000/svg" xmlns:xlink="http://www.w3.org/1999/xlink" x="0px" y="0px" width="1920px"
	 height="1080px" viewBox="0 0 1920 1080" enable-background="new 0 0 1920 1080" xml:space="preserve">
<g id="BACKGROUND">
	<rect fill="#FFFFFF" width="1920" height="1080"/>
</g>
<g id="OBJECTS">
	<g>
		<defs>
			<rect id="SVGID_1_" width="1920" height="1080"/>
		</defs>
		<clipPath id="SVGID_2_">
			<use xlink:href="#SVGID_1_"  overflow="visible"/>
		</clipPath>
		<path clip-path="url(#SVGID_2_)" fill="#D1E1E7" d="M1352.668,1024.544h-11.906c-2.044-7.223-4.907-14.099-8.497-20.517
			l8.418-8.418c8.396-8.396,8.396-22.011,0-30.407l-6.475-6.475c-8.396-8.396-22.011-8.396-30.407,0l-8.419,8.419
			c-6.418-3.591-13.293-6.453-20.516-8.498v-11.906c0-11.875-9.626-21.5-21.501-21.5h-9.156c-11.875,0-21.501,9.625-21.501,21.5
			v11.906c-7.223,2.045-14.098,4.907-20.517,8.498l-8.418-8.419c-8.396-8.396-22.011-8.396-30.407,0l-6.475,6.475
			c-8.396,8.396-8.396,22.011,0,30.407l8.418,8.418c-3.591,6.419-6.453,13.294-8.497,20.517h-11.906
			c-11.875,0-21.501,9.626-21.501,21.501v9.156c0,11.875,9.626,21.502,21.501,21.502h11.906c2.044,7.223,4.906,14.098,8.497,20.515
			l-8.418,8.419c-8.396,8.396-8.396,22.011,0,30.406l6.475,6.475c8.396,8.397,22.011,8.397,30.407,0l8.418-8.417
			c6.418,3.591,13.294,6.453,20.517,8.497v11.905c0,11.875,9.626,21.501,21.501,21.501h9.156c11.875,0,21.501-9.626,21.501-21.501
			v-11.905c7.223-2.044,14.098-4.906,20.517-8.497l8.418,8.417c8.396,8.397,22.011,8.397,30.407,0l6.475-6.475
			c8.396-8.396,8.396-22.01,0-30.406l-8.418-8.419c3.59-6.417,6.453-13.292,8.497-20.515h11.906c11.874,0,21.5-9.627,21.5-21.502
			v-9.156C1374.168,1034.17,1364.542,1024.544,1352.668,1024.544z M1248.787,1115.537c-35.852,0-64.914-29.063-64.914-64.914
			c0-35.851,29.063-64.914,64.914-64.914c35.851,0,64.914,29.063,64.914,64.914
			C1313.701,1086.475,1284.638,1115.537,1248.787,1115.537z"/>
		<path clip-path="url(#SVGID_2_)" fill="#D1E1E7" d="M120.391,344.035h-13.798c-2.369-8.371-5.687-16.339-9.848-23.777l9.756-9.757
			c9.731-9.73,9.731-25.508,0-35.239l-7.504-7.504c-9.731-9.73-25.508-9.73-35.24,0l-9.756,9.757
			c-7.438-4.162-15.406-7.479-23.776-9.848v-13.799c0-13.762-11.156-24.918-24.918-24.918H-5.306
			c-13.762,0-24.918,11.156-24.918,24.918v13.799c-8.371,2.369-16.338,5.687-23.777,9.848l-9.756-9.757
			c-9.731-9.73-25.509-9.73-35.24,0l-7.504,7.504c-9.731,9.731-9.731,25.509,0,35.239l9.756,9.757
			c-4.161,7.439-7.479,15.407-9.848,23.777h-13.798c-13.762,0-24.918,11.156-24.918,24.918v10.612
			c0,13.762,11.156,24.919,24.918,24.919h13.798c2.369,8.371,5.687,16.338,9.848,23.776l-9.756,9.757
			c-9.731,9.73-9.731,25.509,0,35.239l7.504,7.504c9.731,9.732,25.508,9.732,35.24,0l9.756-9.755
			c7.439,4.162,15.407,7.479,23.777,9.847v13.799c0,13.762,11.156,24.918,24.918,24.918H5.306c13.762,0,24.918-11.156,24.918-24.918
			v-13.799c8.371-2.368,16.338-5.685,23.777-9.847l9.756,9.755c9.731,9.732,25.509,9.732,35.24,0l7.504-7.504
			c9.731-9.73,9.731-25.509,0-35.239l-9.756-9.757c4.161-7.438,7.479-15.405,9.848-23.776h13.798
			c13.762,0,24.918-11.157,24.918-24.919v-10.612C145.31,355.191,134.153,344.035,120.391,344.035z M0,449.49
			c-41.549,0-75.231-33.682-75.231-75.231c0-41.548,33.683-75.231,75.231-75.231s75.231,33.683,75.231,75.231
			C75.231,415.809,41.549,449.49,0,449.49z"/>
		<path clip-path="url(#SVGID_2_)" fill="#AEBFC4" d="M479.447-19.667h-7.675c-1.318-4.656-3.163-9.088-5.478-13.225l5.426-5.427
			c5.413-5.413,5.413-14.188,0-19.601l-4.174-4.173c-5.412-5.413-14.188-5.413-19.601,0l-5.426,5.426
			c-4.138-2.314-8.569-4.16-13.225-5.478v-7.675c0-7.655-6.205-13.859-13.86-13.859h-5.902c-7.655,0-13.86,6.205-13.86,13.859v7.675
			c-4.656,1.318-9.087,3.163-13.225,5.478l-5.427-5.426c-5.413-5.413-14.188-5.413-19.601,0l-4.174,4.173
			c-5.413,5.412-5.413,14.188,0,19.601l5.426,5.427c-2.314,4.138-4.16,8.569-5.477,13.225h-7.675
			c-7.654,0-13.859,6.205-13.859,13.859v5.902c0,7.655,6.205,13.86,13.859,13.86h7.675c1.317,4.656,3.163,9.087,5.477,13.225
			l-5.426,5.427c-5.413,5.412-5.413,14.188,0,19.601l4.174,4.173c5.412,5.413,14.188,5.413,19.601,0l5.426-5.426
			c4.138,2.315,8.569,4.16,13.225,5.478v7.675c0,7.654,6.205,13.859,13.86,13.859h5.902c7.655,0,13.86-6.205,13.86-13.859v-7.675
			c4.656-1.317,9.088-3.163,13.225-5.478l5.426,5.426c5.413,5.413,14.188,5.413,19.601,0l4.174-4.173
			c5.413-5.413,5.413-14.188,0-19.601l-5.426-5.427c2.314-4.137,4.16-8.569,5.478-13.225h7.675c7.654,0,13.859-6.206,13.859-13.86
			v-5.902C493.306-13.462,487.101-19.667,479.447-19.667z M412.484,38.989c-23.11,0-41.844-18.734-41.844-41.845
			c0-23.109,18.734-41.844,41.844-41.844s41.844,18.735,41.844,41.844C454.328,20.254,435.594,38.989,412.484,38.989z"/>
		<path clip-path="url(#SVGID_2_)" fill="#D1E1E7" d="M1720.87-29.223h-7.509c-1.29-4.556-3.096-8.893-5.359-12.94l5.309-5.31
			c5.297-5.296,5.297-13.883,0-19.179l-4.083-4.083c-5.296-5.296-13.883-5.296-19.179,0l-5.311,5.31
			c-4.048-2.265-8.384-4.071-12.939-5.36v-7.51c0-7.49-6.072-13.562-13.562-13.562h-5.776c-7.489,0-13.561,6.072-13.561,13.562v7.51
			c-4.556,1.289-8.893,3.095-12.94,5.36l-5.31-5.31c-5.296-5.296-13.883-5.296-19.179,0l-4.084,4.083
			c-5.296,5.296-5.296,13.883,0,19.179l5.31,5.31c-2.265,4.049-4.07,8.385-5.359,12.94h-7.51c-7.49,0-13.562,6.071-13.562,13.561
			v5.775c0,7.49,6.071,13.562,13.562,13.562h7.51c1.289,4.556,3.095,8.892,5.359,12.94l-5.31,5.31
			c-5.296,5.296-5.296,13.883,0,19.179l4.084,4.084c5.296,5.296,13.883,5.296,19.179,0l5.31-5.31
			c4.048,2.265,8.385,4.07,12.94,5.359v7.509c0,7.49,6.071,13.562,13.561,13.562h5.776c7.489,0,13.562-6.071,13.562-13.562v-7.509
			c4.556-1.289,8.892-3.094,12.939-5.359l5.311,5.31c5.296,5.296,13.883,5.296,19.179,0l4.083-4.084
			c5.297-5.296,5.297-13.883,0-19.179l-5.309-5.31c2.264-4.048,4.069-8.384,5.359-12.94h7.509c7.49,0,13.562-6.072,13.562-13.562
			v-5.775C1734.432-23.151,1728.36-29.223,1720.87-29.223z M1655.35,28.17c-22.613,0-40.944-18.331-40.944-40.944
			c0-22.612,18.331-40.944,40.944-40.944c22.612,0,40.943,18.332,40.943,40.944C1696.293,9.839,1677.962,28.17,1655.35,28.17z"/>
		<path clip-path="url(#SVGID_2_)" fill="#AEBFC4" d="M1972.734,705.834h-6.045c-1.037-3.666-2.49-7.157-4.313-10.415l4.273-4.273
			c4.263-4.263,4.263-11.174,0-15.436l-3.286-3.287c-4.263-4.263-11.174-4.263-15.437,0l-4.273,4.273
			c-3.258-1.822-6.748-3.275-10.415-4.313v-6.044c0-6.028-4.887-10.915-10.914-10.915h-4.648c-6.028,0-10.915,4.887-10.915,10.915
			v6.044c-3.666,1.038-7.156,2.491-10.415,4.313l-4.273-4.273c-4.262-4.263-11.173-4.263-15.436,0l-3.287,3.287
			c-4.263,4.262-4.263,11.173,0,15.436l4.273,4.273c-1.822,3.259-3.275,6.749-4.313,10.415h-6.044
			c-6.028,0-10.914,4.887-10.914,10.915v4.647c0,6.028,4.886,10.915,10.914,10.915h6.044c1.038,3.667,2.491,7.157,4.313,10.415
			L1873.35,747c-4.263,4.263-4.263,11.174,0,15.436l3.287,3.287c4.263,4.263,11.174,4.263,15.436,0l4.273-4.273
			c3.259,1.823,6.749,3.276,10.415,4.313v6.044c0,6.028,4.887,10.915,10.915,10.915h4.648c6.027,0,10.914-4.887,10.914-10.915
			v-6.044c3.667-1.037,7.157-2.49,10.415-4.313l4.273,4.273c4.263,4.263,11.174,4.263,15.437,0l3.286-3.287
			c4.263-4.262,4.263-11.173,0-15.436l-4.273-4.273c1.823-3.258,3.276-6.748,4.313-10.415h6.045c6.027,0,10.914-4.887,10.914-10.915
			v-4.647C1983.648,710.721,1978.762,705.834,1972.734,705.834z M1920,752.025c-18.199,0-32.953-14.753-32.953-32.953
			c0-18.199,14.754-32.953,32.953-32.953s32.953,14.754,32.953,32.953C1952.953,737.272,1938.199,752.025,1920,752.025z"/>
	</g>
	<path fill="#D1E1E7" d="M1176.14,703.568h-33.281l-16.641,28.822l16.641,28.822h33.281l16.641-28.822L1176.14,703.568z
		 M1160.418,749.376c-9.381,0-16.985-7.604-16.985-16.985s7.604-16.985,16.985-16.985s16.985,7.604,16.985,16.985
		S1169.799,749.376,1160.418,749.376z"/>
	<path fill="#D1E1E7" d="M1114.974,678.808h-23.804l-11.901,20.614l11.901,20.614h23.804l11.901-20.614L1114.974,678.808z
		 M1103.729,711.57c-6.709,0-12.148-5.439-12.148-12.148s5.439-12.148,12.148-12.148s12.148,5.439,12.148,12.148
		S1110.438,711.57,1103.729,711.57z"/>
	<path fill="#D1E1E7" d="M1814.459,241.907h-33.281l-16.641,28.822l16.641,28.822h33.281l16.641-28.822L1814.459,241.907z
		 M1798.738,287.714c-9.381,0-16.985-7.604-16.985-16.985c0-9.38,7.604-16.985,16.985-16.985s16.985,7.605,16.985,16.985
		C1815.724,280.109,1808.119,287.714,1798.738,287.714z"/>
	<path fill="#D1E1E7" d="M1854.492,293.74h-23.804l-11.901,20.614l11.901,20.614h23.804l11.902-20.614L1854.492,293.74z
		 M1843.248,326.502c-6.709,0-12.148-5.439-12.148-12.148s5.439-12.148,12.148-12.148s12.148,5.439,12.148,12.148
		S1849.957,326.502,1843.248,326.502z"/>
	<path fill="#D1E1E7" d="M717.803,143h33.281l16.641-28.822l-16.641-28.822h-33.281l-16.641,28.822L717.803,143z M733.524,97.192
		c9.381,0,16.985,7.604,16.985,16.985s-7.604,16.985-16.985,16.985s-16.985-7.604-16.985-16.985S724.143,97.192,733.524,97.192z"/>
	<path fill="#D1E1E7" d="M131.925,892.389h33.281l16.641-28.822l-16.641-28.821h-33.281l-16.641,28.821L131.925,892.389z
		 M147.646,846.581c9.381,0,16.985,7.605,16.985,16.985c0,9.381-7.604,16.985-16.985,16.985c-9.38,0-16.985-7.604-16.985-16.985
		C130.66,854.187,138.265,846.581,147.646,846.581z"/>
	<path fill="#D1E1E7" d="M84.609,849.073h23.804l11.902-20.614l-11.902-20.614H84.609l-11.902,20.614L84.609,849.073z
		 M95.853,816.311c6.709,0,12.148,5.439,12.148,12.148c0,6.71-5.439,12.148-12.148,12.148s-12.148-5.438-12.148-12.148
		C83.705,821.75,89.144,816.311,95.853,816.311z"/>
	<path fill="#D1E1E7" d="M1123.914,766.616h-23.804l-11.901,20.614l11.901,20.614h23.804l11.902-20.614L1123.914,766.616z
		 M1112.67,799.379c-6.709,0-12.148-5.439-12.148-12.148s5.439-12.148,12.148-12.148c6.71,0,12.148,5.439,12.148,12.148
		S1119.38,799.379,1112.67,799.379z"/>
</g>
<g id="TEXTS">
</g>
</svg>
